<svg width="17" height="18" viewBox="0 0 17 18" fill="none" xmlns="http://www.w3.org/2000/svg">
<g id="ic:baseline-language">
<path id="Vector" d="M8.49294 1.5C4.58294 1.5 1.41669 4.86 1.41669 9C1.41669 13.14 4.58294 16.5 8.49294 16.5C12.41 16.5 15.5834 13.14 15.5834 9C15.5834 4.86 12.41 1.5 8.49294 1.5ZM13.4017 6H11.3121C11.0904 5.07109 10.7621 4.17442 10.3346 3.33C11.6267 3.801 12.7154 4.74879 13.4017 6ZM8.50002 3.03C9.08794 3.93 9.54835 4.9275 9.85294 6H7.1471C7.45169 4.9275 7.9121 3.93 8.50002 3.03ZM3.01752 10.5C2.90419 10.02 2.83335 9.5175 2.83335 9C2.83335 8.4825 2.90419 7.98 3.01752 7.5H5.41169C5.35502 7.995 5.31252 8.49 5.31252 9C5.31252 9.51 5.35502 10.005 5.41169 10.5H3.01752ZM3.59835 12H5.68794C5.9146 12.9375 6.24044 13.8375 6.66544 14.67C5.372 14.2016 4.28249 13.2531 3.59835 12V12ZM5.68794 6H3.59835C4.28249 4.74688 5.372 3.79843 6.66544 3.33C6.23791 4.17442 5.90963 5.07109 5.68794 6V6ZM8.50002 14.97C7.9121 14.07 7.45169 13.0725 7.1471 12H9.85294C9.54835 13.0725 9.08794 14.07 8.50002 14.97ZM10.1575 10.5H6.84252C6.77877 10.005 6.72919 9.51 6.72919 9C6.72919 8.49 6.77877 7.9875 6.84252 7.5H10.1575C10.2213 7.9875 10.2709 8.49 10.2709 9C10.2709 9.51 10.2213 10.005 10.1575 10.5ZM10.3346 14.67C10.7596 13.8375 11.0854 12.9375 11.3121 12H13.4017C12.7154 13.2512 11.6267 14.199 10.3346 14.67V14.67ZM11.5884 10.5C11.645 10.005 11.6875 9.51 11.6875 9C11.6875 8.49 11.645 7.995 11.5884 7.5H13.9825C14.0959 7.98 14.1667 8.4825 14.1667 9C14.1667 9.5175 14.0959 10.02 13.9825 10.5H11.5884Z" fill="white"/>
</g>
</svg>
